<svg xmlns="http://www.w3.org/2000/svg" width="70" height="67" viewBox="0 0 70 67">
  <g id="Dairy_Free_Icon" data-name="Dairy Free Icon" transform="translate(0.437 -0.445)">
    <ellipse id="Ellipse_32" data-name="Ellipse 32" cx="35" cy="33.5" rx="35" ry="33.5" transform="translate(-0.437 0.445)" opacity="0.745"/>
    <path id="Gluten_icon" data-name="Gluten icon" d="M17.263,54.3a28,28,0,0,1-3.243-1.62,1.744,1.744,0,0,1,1.767-3.007A24.776,24.776,0,0,0,47.121,12.194a.514.514,0,0,0-.759-.031l-6.1,6.1a1.737,1.737,0,1,1-2.457-2.456l5.358-5.361,1.1-1.1,1.519-1.518A1.415,1.415,0,0,1,47.761,7.8c.166.155.327.314.487.472A28.269,28.269,0,0,1,17.263,54.3ZM8.288,48.257l-.011-.007A28.274,28.274,0,0,1,39.266,2.22c.829.353,1.633.741,2.421,1.165a1.743,1.743,0,1,1-1.661,3.064A24.78,24.78,0,0,0,9.139,44.019a.294.294,0,0,0,.43.021l4.891-4.888a1.736,1.736,0,0,1,2.433-.025,1.767,1.767,0,0,1,0,2.506l-5.122,5.121-1.507,1.5a1.394,1.394,0,0,1-1.976,0ZM22.6,45.8a2.888,2.888,0,0,1-2.883-2.883V26.608a15.931,15.931,0,0,1,2.731-8.4,11.242,11.242,0,0,0,1.366-2.88A2.067,2.067,0,0,1,22.2,13.315v-.532a2.067,2.067,0,0,1,2.064-2.065h7.994a2.067,2.067,0,0,1,2.065,2.065v.532a2.068,2.068,0,0,1-1.614,2.012,11.593,11.593,0,0,0,1.367,2.88,15.94,15.94,0,0,1,2.732,8.4V42.921A2.886,2.886,0,0,1,33.925,45.8Zm.936-26.964c-1.2,2.071-2.562,4.418-2.562,7.768V42.921A1.629,1.629,0,0,0,22.6,44.548H33.925a1.63,1.63,0,0,0,1.627-1.627V26.608c0-3.349-1.359-5.7-2.562-7.768a11.108,11.108,0,0,1-1.55-3.459H25.084A11.027,11.027,0,0,1,23.535,18.84Zm-.079-6.057v.532a.808.808,0,0,0,.809.806h7.994a.808.808,0,0,0,.809-.806v-.532a.811.811,0,0,0-.809-.808H24.265A.811.811,0,0,0,23.456,12.783Zm.17,30.96A1.534,1.534,0,0,1,22.1,42.212V27.6l.876.374a9.185,9.185,0,0,0,3.391.762,6.6,6.6,0,0,0,3.585-1.405A7.137,7.137,0,0,1,33.8,25.846h.628V42.212A1.535,1.535,0,0,1,32.9,43.744Z" transform="translate(6.795 5.829)" fill="#fedc5c" stroke="rgba(0,0,0,0)" stroke-miterlimit="10" stroke-width="1"/>
  </g>
</svg>
