<svg xmlns="http://www.w3.org/2000/svg" width="68" height="67" viewBox="0 0 68 67">
  <g id="Peanut_Icon" data-name="Peanut Icon" transform="translate(0.123 -0.445)">
    <ellipse id="Ellipse_32" data-name="Ellipse 32" cx="34" cy="33.5" rx="34" ry="33.5" transform="translate(-0.123 0.445)" opacity="0.745"/>
    <path id="Peanut" d="M17.263,54.3a28,28,0,0,1-3.243-1.62,1.744,1.744,0,0,1,1.767-3.007A24.776,24.776,0,0,0,47.121,12.194a.514.514,0,0,0-.759-.031l-6.1,6.1a1.737,1.737,0,1,1-2.457-2.456l5.358-5.361,1.1-1.1,1.519-1.518A1.415,1.415,0,0,1,47.761,7.8c.166.155.327.314.487.472A28.269,28.269,0,0,1,17.263,54.3ZM8.288,48.257l-.011-.007A28.274,28.274,0,0,1,39.266,2.22c.829.353,1.633.741,2.421,1.165a1.743,1.743,0,1,1-1.661,3.064A24.78,24.78,0,0,0,9.139,44.019a.294.294,0,0,0,.43.021l4.891-4.888a1.736,1.736,0,0,1,2.433-.025,1.767,1.767,0,0,1,0,2.506l-5.122,5.121-1.507,1.5a1.394,1.394,0,0,1-1.976,0ZM33.4,46.482c-8.062-2.008-9.254-8.506-9.967-12.388a9.688,9.688,0,0,0-.653-2.535,9.51,9.51,0,0,0-1.931-1.772c-3.095-2.45-8.268-6.555-6.26-14.615.519-2.076,1.663-4.589,2.686-5.2s3.776-.445,5.852.075c8.062,2.008,9.249,8.506,9.966,12.388a9.586,9.586,0,0,0,.654,2.535,9.426,9.426,0,0,0,1.929,1.768c3.1,2.452,8.27,6.558,6.263,14.615-.519,2.075-1.663,4.587-2.687,5.2a4.666,4.666,0,0,1-2.2.394A15.91,15.91,0,0,1,33.4,46.482Zm-2.883-2.358a12.909,12.909,0,0,0,3.166,1.218,14.69,14.69,0,0,0,2.35.384c-.431-.233-.755-.435-.851-.5a17.339,17.339,0,0,1-2.74-2.169A4.616,4.616,0,0,1,30.517,44.124Zm2.1-5.22a2.506,2.506,0,0,1-1.408.953,16.81,16.81,0,0,0,4.6,4.383,11.625,11.625,0,0,0,1.985,1.024l-6.1-10.14a3.534,3.534,0,0,1-1.518.261l.064-1.172a2.378,2.378,0,0,0,.841-.113L24.4,22.98a4.366,4.366,0,0,1-2.39,1.348c.853,1.105,1.716,2.073,2.463,2.916a17.425,17.425,0,0,1,1.8,2.213,17.278,17.278,0,0,1,1.112,2.629,35.115,35.115,0,0,0,3.081,6.668,1.328,1.328,0,0,0,1.208-.543Zm4.335,2.682L38.8,44.661a11.9,11.9,0,0,0,.029-2.232,16.164,16.164,0,0,0-.248-1.8A3.172,3.172,0,0,1,36.954,41.586ZM39.53,39.5A17.031,17.031,0,0,1,40,42.338c.01.113.035.494.042.985a15.005,15.005,0,0,0,.762-2.255,13.98,13.98,0,0,0,.382-2.35A3.383,3.383,0,0,1,39.53,39.5ZM28.989,43.1a3.469,3.469,0,0,0,2.64-.879,19.756,19.756,0,0,1-1.617-2.047,4.362,4.362,0,0,1-2.91.892A9.983,9.983,0,0,0,28.989,43.1Zm7.344-7.173A2.89,2.89,0,0,1,34.7,37.842L36.3,40.5a1.991,1.991,0,0,0,1.869-1.521c-1.3-4.264-4.114-7.436-6.115-9.692a17.134,17.134,0,0,1-1.8-2.216,17.292,17.292,0,0,1-1.112-2.626c-.342-.918-.727-1.955-1.2-3.042a4.094,4.094,0,0,1-1.348.292l-.047-1.175a2.722,2.722,0,0,0,.911-.191,24.125,24.125,0,0,0-1.765-3.116,3.888,3.888,0,0,1-2.416,1.609l8.8,14.644a2.273,2.273,0,0,0,.55-1.069l1.148.25c-.008.035-.014.071-.024.106a3.478,3.478,0,0,1-1.053,1.75l1.393,2.323a1.705,1.705,0,0,0,1.109-1.19Zm-9.177.907a3.561,3.561,0,0,1-1.789.513,14.858,14.858,0,0,0,.935,2.379,3.221,3.221,0,0,0,3.068-.537A36.59,36.59,0,0,1,26.285,32.5a17.633,17.633,0,0,0-1.018-2.431,16.939,16.939,0,0,0-1.67-2.041L23.573,28a2.594,2.594,0,0,1-1.781.363l.177-1.158a1.464,1.464,0,0,0,.807-.109c-.6-.7-1.263-1.483-1.919-2.358a3.927,3.927,0,0,1-2.732,1.017,26.244,26.244,0,0,0,3.451,3.12,9.745,9.745,0,0,1,2.209,2.082,9.786,9.786,0,0,1,.806,2.929c.126.7.268,1.476.46,2.273a2.434,2.434,0,0,0,1.506-.328ZM37.906,35.3a19.673,19.673,0,0,1,1.3,3.057,2.213,2.213,0,0,0,1.93-1.8,9.852,9.852,0,0,0-1.112-3.487A4.3,4.3,0,0,1,37.906,35.3Zm-2.486-3.843a28.321,28.321,0,0,1,1.916,2.817,3.132,3.132,0,0,0,1.828-2.556,15.267,15.267,0,0,0-1.86-2.079A4.587,4.587,0,0,1,35.419,31.461ZM30.177,19.14a4.01,4.01,0,0,1-1.22,1.659c.52,1.189.933,2.294,1.28,3.233a17.32,17.32,0,0,0,1.02,2.431,17.048,17.048,0,0,0,1.67,2.041c.524.589,1.119,1.26,1.74,2.014a3.4,3.4,0,0,0,1.733-1.68c-.5-.427-1-.819-1.45-1.182a9.717,9.717,0,0,1-2.211-2.086,9.73,9.73,0,0,1-.8-2.925c-.416-2.288-.967-5.274-2.895-7.7a3.9,3.9,0,0,1-2.371,1.635,26.018,26.018,0,0,1,1.772,3.105,2.858,2.858,0,0,0,.645-.977ZM17.006,24.293a2.758,2.758,0,0,0,3.155-.523,23.978,23.978,0,0,1-1.737-2.932,3.082,3.082,0,0,1-2.775.454A10.233,10.233,0,0,0,17.006,24.293Zm4.006-5.022a3.44,3.44,0,0,1-1.566,1.01,22.041,22.041,0,0,0,1.767,2.953,3.166,3.166,0,0,0,2.549-1.327l-3.717-6.179a3.112,3.112,0,0,1-1.966.794A17.186,17.186,0,0,0,18.95,19.2a2.26,2.26,0,0,0,1.179-.7Zm-5.284-3.812a12.325,12.325,0,0,0-.352,4.359,1.887,1.887,0,0,0,2.537-.085,17.635,17.635,0,0,1-1.383-5.549c-.01-.109-.035-.49-.038-.98A14.411,14.411,0,0,0,15.727,15.458Zm5.457-.116,1.43,2.379a2.706,2.706,0,0,0,2.322-1.552,17.393,17.393,0,0,0-1.818-2.009A2.986,2.986,0,0,1,21.184,15.342Zm3.568-3.215a2.023,2.023,0,0,1-.18.48,2.3,2.3,0,0,1-.6.752,18.761,18.761,0,0,1,1.92,2.146,2.7,2.7,0,0,0,2.322-1.472,10.5,10.5,0,0,0-3.408-2.209A2.012,2.012,0,0,1,24.752,12.127ZM17.7,14.1c.035.424.086.841.148,1.25a1.949,1.949,0,0,0,1.579-.656l-1.7-2.823A12.056,12.056,0,0,0,17.7,14.1Zm2.8.1a1.814,1.814,0,0,0,1.736-.811,15.592,15.592,0,0,0-1.516-1.094,11.869,11.869,0,0,0-1.981-1.027Zm.85-2.9a16.567,16.567,0,0,1,1.727,1.259,1.123,1.123,0,0,0,.564-1.15c-.252-.077-.518-.151-.79-.218a14.6,14.6,0,0,0-2.35-.389C20.923,11.033,21.248,11.233,21.342,11.295Z" transform="translate(4.817 5.829)" fill="#fedc5c" stroke="rgba(0,0,0,0)" stroke-miterlimit="10" stroke-width="1"/>
  </g>
</svg>
